<svg xmlns="http://www.w3.org/2000/svg" id="svg2" viewBox="0 0 473.58 473.59" version="1.0" xmlns:xlink="http://www.w3.org/1999/xlink" xmlns:svg="http://www.w3.org/2000/svg" xmlns:dc="http://purl.org/dc/elements/1.1/" xmlns:cc="http://creativecommons.org/ns#" xmlns:rdf="http://www.w3.org/1999/02/22-rdf-syntax-ns#">
  <defs id="defs4">
    <linearGradient id="linearGradient4174">
      <stop id="stop4176" stop-color="rgb(85, 87, 83)" offset="0" />
      <stop id="stop4178" stop-color="rgb(145, 147, 142)" offset="1" />
    </linearGradient>
    <radialGradient id="radialGradient4129" gradientUnits="userSpaceOnUse" gradientTransform="matrix(0.18225 0 0 0.18278 1891.4 799.18)" cx="2312.9" cy="977.92" r="1151.6">
      <stop id="stop4125" stop-color="rgb(85, 87, 83)" offset="0" />
      <stop id="stop4131" stop-color="rgb(126, 128, 124)" offset="0.96429" />
      <stop id="stop4127" stop-color="rgb(168, 170, 166)" offset="1" />
    </radialGradient>
    <linearGradient id="linearGradient4817" gradientUnits="userSpaceOnUse" gradientTransform="matrix(0.59996 -0.34639 0.094705 0.16403 860.27 1598.4)" spreadMethod="reflect" x1="2262.3" y1="431.39" x2="2263.8" y2="431.39" xlink:href="#linearGradient4174" />
    <linearGradient id="linearGradient4823" gradientUnits="userSpaceOnUse" gradientTransform="matrix(0.34639 -0.59996 0.16403 0.094705 1365.1 2241.6)" spreadMethod="reflect" x1="2262.3" y1="431.39" x2="2263.8" y2="431.39" xlink:href="#linearGradient4174" />
    <linearGradient id="linearGradient4829" gradientUnits="userSpaceOnUse" gradientTransform="matrix(1.4924e-008 -0.69278 0.18941 -1.6235e-008 2124 2546.2)" spreadMethod="reflect" x1="2262.3" y1="431.39" x2="2263.8" y2="431.39" xlink:href="#linearGradient4174" />
    <linearGradient id="linearGradient4835" gradientUnits="userSpaceOnUse" gradientTransform="matrix(-0.34639 -0.59996 0.16403 -0.094705 2933.4 2430.6)" spreadMethod="reflect" x1="2262.3" y1="431.39" x2="2263.8" y2="431.39" xlink:href="#linearGradient4174" />
    <linearGradient id="linearGradient4841" gradientUnits="userSpaceOnUse" gradientTransform="matrix(-0.59996 -0.34639 0.094705 -0.16403 3576.6 1925.7)" spreadMethod="reflect" x1="2262.3" y1="431.39" x2="2263.8" y2="431.39" xlink:href="#linearGradient4174" />
    <linearGradient id="linearGradient4847" gradientUnits="userSpaceOnUse" gradientTransform="matrix(-0.69278 -2.8317e-008 -1.6235e-008 -0.18941 3881.2 1166.9)" spreadMethod="reflect" x1="2262.3" y1="431.39" x2="2263.8" y2="431.39" xlink:href="#linearGradient4174" />
    <linearGradient id="linearGradient4853" gradientUnits="userSpaceOnUse" gradientTransform="matrix(-0.59996 0.34639 -0.094705 -0.16403 3765.6 357.44)" spreadMethod="reflect" x1="2262.3" y1="431.39" x2="2263.8" y2="431.39" xlink:href="#linearGradient4174" />
    <linearGradient id="linearGradient4862" gradientUnits="userSpaceOnUse" gradientTransform="matrix(-0.34639 0.59996 -0.16403 -0.094705 3260.7 -285.77)" spreadMethod="reflect" x1="2262.3" y1="431.39" x2="2263.8" y2="431.39" xlink:href="#linearGradient4174" />
    <linearGradient id="linearGradient4865" gradientUnits="userSpaceOnUse" gradientTransform="matrix(0 0.69278 -0.18941 1.6235e-008 2501.9 -590.37)" spreadMethod="reflect" x1="2262.3" y1="431.39" x2="2263.8" y2="431.39" xlink:href="#linearGradient4174" />
    <linearGradient id="linearGradient4871" gradientUnits="userSpaceOnUse" gradientTransform="matrix(0.34639 0.59996 -0.16403 0.094705 1692.5 -474.75)" spreadMethod="reflect" x1="2262.3" y1="431.39" x2="2263.8" y2="431.39" xlink:href="#linearGradient4174" />
    <linearGradient id="linearGradient4877" gradientUnits="userSpaceOnUse" gradientTransform="matrix(0.59996 0.34639 -0.094705 0.16403 1049.2 30.117)" spreadMethod="reflect" x1="2262.3" y1="431.39" x2="2263.8" y2="431.39" xlink:href="#linearGradient4174" />
    <linearGradient id="linearGradient4883" gradientUnits="userSpaceOnUse" gradientTransform="matrix(0.69278 0 0 0.18941 744.65 788.94)" spreadMethod="reflect" x1="2262.3" y1="431.39" x2="2263.8" y2="431.39" xlink:href="#linearGradient4174" />
    <linearGradient id="linearGradient4957" gradientUnits="userSpaceOnUse" gradientTransform="matrix(0.65578 0.22337 -0.061071 0.17929 889.34 293.38)" spreadMethod="reflect" x1="2262.3" y1="431.39" x2="2263.8" y2="431.39" xlink:href="#linearGradient4174" />
    <linearGradient id="linearGradient4959" gradientUnits="userSpaceOnUse" gradientTransform="matrix(0.45624 0.52134 -0.14254 0.12474 1422.3 -326.71)" spreadMethod="reflect" x1="2262.3" y1="431.39" x2="2263.8" y2="431.39" xlink:href="#linearGradient4174" />
    <linearGradient id="linearGradient4961" gradientUnits="userSpaceOnUse" gradientTransform="matrix(0.13445 0.67961 -0.18581 0.036758 2194 -597.23)" spreadMethod="reflect" x1="2262.3" y1="431.39" x2="2263.8" y2="431.39" xlink:href="#linearGradient4174" />
    <linearGradient id="linearGradient4963" gradientUnits="userSpaceOnUse" gradientTransform="matrix(-0.22337 0.65578 -0.17929 -0.061071 2997.5 -445.68)" spreadMethod="reflect" x1="2262.3" y1="431.39" x2="2263.8" y2="431.39" xlink:href="#linearGradient4174" />
    <linearGradient id="linearGradient4965" gradientUnits="userSpaceOnUse" gradientTransform="matrix(-0.52134 0.45624 -0.12474 -0.14254 3617.6 87.318)" spreadMethod="reflect" x1="2262.3" y1="431.39" x2="2263.8" y2="431.39" xlink:href="#linearGradient4174" />
    <linearGradient id="linearGradient4967" gradientUnits="userSpaceOnUse" gradientTransform="matrix(-0.67961 0.13445 -0.036758 -0.18581 3888.1 858.95)" spreadMethod="reflect" x1="2262.3" y1="431.39" x2="2263.8" y2="431.39" xlink:href="#linearGradient4174" />
    <linearGradient id="linearGradient4969" gradientUnits="userSpaceOnUse" gradientTransform="matrix(-0.65578 -0.22337 0.061071 -0.17929 3736.5 1662.5)" spreadMethod="reflect" x1="2262.3" y1="431.39" x2="2263.8" y2="431.39" xlink:href="#linearGradient4174" />
    <linearGradient id="linearGradient4971" gradientUnits="userSpaceOnUse" gradientTransform="matrix(-0.45624 -0.52134 0.14254 -0.12474 3203.5 2282.6)" spreadMethod="reflect" x1="2262.3" y1="431.39" x2="2263.8" y2="431.39" xlink:href="#linearGradient4174" />
    <linearGradient id="linearGradient4973" gradientUnits="userSpaceOnUse" gradientTransform="matrix(-0.13445 -0.67961 0.18581 -0.036758 2431.9 2553.1)" spreadMethod="reflect" x1="2262.3" y1="431.39" x2="2263.8" y2="431.39" xlink:href="#linearGradient4174" />
    <linearGradient id="linearGradient4975" gradientUnits="userSpaceOnUse" gradientTransform="matrix(0.22337 -0.65578 0.17929 0.061071 1628.4 2401.5)" spreadMethod="reflect" x1="2262.3" y1="431.39" x2="2263.8" y2="431.39" xlink:href="#linearGradient4174" />
    <linearGradient id="linearGradient4977" gradientUnits="userSpaceOnUse" gradientTransform="matrix(0.52134 -0.45624 0.12474 0.14254 1008.3 1868.5)" spreadMethod="reflect" x1="2262.3" y1="431.39" x2="2263.8" y2="431.39" xlink:href="#linearGradient4174" />
    <radialGradient id="radialGradient4999" gradientUnits="userSpaceOnUse" gradientTransform="matrix(0.7637 0 0 0.73563 526.09 233.35)" cx="2226.4" cy="882.66" r="133.34">
      <stop id="stop4995" stop-color="rgb(46, 52, 54)" offset="0" />
      <stop id="stop5192" stop-color="rgb(80, 90, 94)" offset="0.82143" />
      <stop id="stop4997" stop-color="rgb(46, 52, 54)" offset="1" />
    </radialGradient>
    <linearGradient id="linearGradient5212" gradientUnits="userSpaceOnUse" gradientTransform="matrix(0.67961 -0.13445 0.036758 0.18581 737.79 1096.9)" spreadMethod="reflect" x1="2262.3" y1="431.39" x2="2263.8" y2="431.39" xlink:href="#linearGradient4174" />
    <filter id="filter5583">
      <feGaussianBlur id="feGaussianBlur5585" stdDeviation="27.2118" />
    </filter>
  </defs>
  <g id="layer1" transform="translate(-2076.1 -741.13)">
    <path id="path5208" fill="url(#linearGradient5212)" fill-rule="evenodd" d="m 2270.3 767.66 l 41.6 210.46 l 2 -0.39 l -41.6 -210.46 l -2 0.39 Z" />
    <path id="path4945" fill="url(#linearGradient4967)" fill-rule="evenodd" d="m 2355.6 1188.2 l -41.7 -210.47 l -2 0.39 l 41.7 210.48 l 2 -0.4 Z" />
    <path id="path4939" fill="url(#linearGradient4961)" fill-rule="evenodd" d="m 2523.2 935.3 l -210.5 41.63 l 0.4 1.98 l 210.5 -41.64 l -0.4 -1.97 Z" />
    <path id="path4168" fill="url(#linearGradient4883)" fill-rule="evenodd" d="m 2311.9 763.39 v 214.53 h 2 v -214.53 h -2 Z" />
    <path id="path4186" fill="url(#linearGradient4877)" fill-rule="evenodd" d="m 2419.3 791.62 l -107.2 185.8 l 1.7 1.01 l 107.3 -185.8 l -1.8 -1.01 Z" />
    <path id="path4194" fill="url(#linearGradient4871)" fill-rule="evenodd" d="m 2498.2 869.78 l -185.8 107.27 l 1 1.74 l 185.8 -107.26 l -1 -1.75 Z" />
    <path id="path4202" fill="url(#linearGradient4865)" fill-rule="evenodd" d="m 2527.5 976.92 h -214.6 v 2.01 h 214.6 v -2.01 Z" />
    <path id="path4206" fill="url(#linearGradient4862)" fill-rule="evenodd" d="m 2499.2 1084.3 l -185.8 -107.25 l -1 1.74 l 185.8 107.31 l 1 -1.8 Z" />
    <path id="path4218" fill="url(#linearGradient4853)" fill-rule="evenodd" d="m 2421.1 1163.2 l -107.3 -185.78 l -1.7 1.01 l 107.2 185.77 l 1.8 -1 Z" />
    <path id="path4601" fill="url(#linearGradient4841)" fill-rule="evenodd" d="m 2206.5 1164.2 l 107.3 -185.77 l -1.7 -1.01 l -107.3 185.78 l 1.7 1 Z" />
    <path id="path4609" fill="url(#linearGradient4835)" fill-rule="evenodd" d="m 2127.6 1086.1 l 185.8 -107.31 l -1 -1.74 l -185.8 107.25 l 1 1.8 Z" />
    <path id="path4617" fill="url(#linearGradient4829)" fill-rule="evenodd" d="m 2098.4 978.93 h 214.5 v -2.01 h -214.5 v 2.01 Z" />
    <path id="path4625" fill="url(#linearGradient4823)" fill-rule="evenodd" d="m 2126.6 871.53 l 185.8 107.26 l 1 -1.74 l -185.8 -107.27 l -1 1.75 Z" />
    <path id="path4633" fill="url(#linearGradient4817)" fill-rule="evenodd" d="m 2204.8 792.63 l 107.3 185.8 l 1.7 -1.01 l -107.3 -185.8 l -1.7 1.01 Z" />
    <path id="path4935" fill="url(#linearGradient4957)" fill-rule="evenodd" d="m 2381.2 774.52 l -69.2 203.08 l 1.9 0.65 l 69.2 -203.08 l -1.9 -0.65 Z" />
    <path id="path4937" fill="url(#linearGradient4959)" fill-rule="evenodd" d="m 2473.7 835.88 l -161.4 141.28 l 1.3 1.52 l 161.4 -141.29 l -1.3 -1.51 Z" />
    <path id="path4941" fill="url(#linearGradient4963)" fill-rule="evenodd" d="m 2516.3 1046.1 l -203 -69.13 l -0.7 1.9 l 203.1 69.13 l 0.6 -1.9 Z" />
    <path id="path4943" fill="url(#linearGradient4965)" fill-rule="evenodd" d="m 2455 1138.7 l -141.3 -161.44 l -1.5 1.32 l 141.3 161.42 l 1.5 -1.3 Z" />
    <path id="path4947" fill="url(#linearGradient4969)" fill-rule="evenodd" d="m 2244.7 1181.3 l 69.2 -203.05 l -1.9 -0.65 l -69.2 203.1 l 1.9 0.6 Z" />
    <path id="path4949" fill="url(#linearGradient4971)" fill-rule="evenodd" d="m 2152.2 1120 l 161.4 -141.32 l -1.3 -1.52 l -161.5 141.24 l 1.4 1.6 Z" />
    <path id="path4951" fill="url(#linearGradient4973)" fill-rule="evenodd" d="m 2102.7 1020.5 l 210.4 -41.59 l -0.4 -1.98 l -210.4 41.67 l 0.4 1.9 Z" />
    <path id="path4953" fill="url(#linearGradient4975)" fill-rule="evenodd" d="m 2109.5 909.7 l 203.1 69.17 l 0.7 -1.9 l -203.1 -69.17 l -0.7 1.9 Z" />
    <path id="path4955" fill="url(#linearGradient4977)" fill-rule="evenodd" d="m 2170.9 817.14 l 141.3 161.44 l 1.5 -1.32 l -141.3 -161.45 l -1.5 1.33 Z" />
    <path id="path4226" fill="url(#linearGradient4847)" fill-rule="evenodd" d="m 2313.9 1192.5 v -214.58 h -2 v 214.58 h 2 Z" />
    <path id="path2160" fill="#2e3436" stroke="#2e3436" stroke-dasharray="15.1528, 3.7882" stroke-linecap="round" stroke-linejoin="round" stroke-width="3.7882" d="m 2312.9 743.02 c -129.6 0 -234.9 105.23 -234.9 234.9 c 0 129.68 105.3 234.88 234.9 234.88 c 129.7 0 234.9 -105.2 234.9 -234.88 c 0 -129.67 -105.2 -234.9 -234.9 -234.9 Z m 0 16.78 c 120.4 0 218.2 97.72 218.2 218.12 c 0 120.38 -97.8 218.08 -218.2 218.08 s -218.1 -97.7 -218.1 -218.08 c 0 -120.4 97.7 -218.12 218.1 -218.12 Z" />
    <path id="path5560" filter="url(#filter5583)" opacity="0.16477" fill="#eeeeec" transform="matrix(0.18941 0 0 0.18941 1874.8 792.69)" d="m 2312.9 -219.41 c -660.9 0 -1197.3 536.41 -1197.3 1197.3 c 0 660.91 536.4 1197.3 1197.3 1197.3 s 1197.3 -536.4 1197.3 -1197.3 s -536.4 -1197.3 -1197.3 -1197.3 Z m 0 45.75 c 635.7 0 1151.6 515.9 1151.6 1151.6 c 0 635.66 -515.9 1151.6 -1151.6 1151.6 c -635.6 0 -1151.5 -515.9 -1151.5 -1151.6 c 0 -635.66 515.9 -1151.6 1151.5 -1151.6 Z" />
    <path id="path2164" fill="url(#radialGradient4129)" d="m 2312.9 759.8 c -120.4 0 -218.1 97.72 -218.1 218.12 c 0 120.38 97.7 218.08 218.1 218.08 s 218.2 -97.7 218.2 -218.08 c 0 -120.4 -97.8 -218.12 -218.2 -218.12 Z m 0 16.78 c 111.2 0 201.4 90.2 201.4 201.34 c 0 111.18 -90.2 201.38 -201.4 201.38 c -111.1 0 -201.3 -90.2 -201.3 -201.38 c 0 -111.14 90.2 -201.34 201.3 -201.34 Z" />
    <path id="path4151" fill="url(#radialGradient4999)" transform="matrix(0.17616 0 0 0.17616 1920.7 822.43)" d="m 2359.7 882.66 a 133.34 133.34 0 1 1 -266.7 0 a 133.34 133.34 0 1 1 266.7 0 Z" />
    <path id="path4983" fill="#2e3436" transform="matrix(0.10585 0 0 0.10585 2077.3 884.49)" d="m 2359.7 882.66 a 133.34 133.34 0 1 1 -266.7 0 a 133.34 133.34 0 1 1 266.7 0 Z" />
  </g>
  <metadata>
    <rdf:RDF>
      <cc:Work>
        <dc:format>image/svg+xml</dc:format>
        <dc:type rdf:resource="http://purl.org/dc/dcmitype/StillImage" />
        <cc:license rdf:resource="http://creativecommons.org/licenses/publicdomain/" />
        <dc:publisher>
          <cc:Agent rdf:about="http://openclipart.org/">
            <dc:title>Openclipart</dc:title>
          </cc:Agent>
        </dc:publisher>
        <dc:title>BikeWheel</dc:title>
        <dc:date>2007-11-02T14:45:25</dc:date>
        <dc:description>Simple bicycle wheel drawing.</dc:description>
        <dc:source>http://openclipart.org/detail/7902/bikewheel-by-carlitos</dc:source>
        <dc:creator>
          <cc:Agent>
            <dc:title>carlitos</dc:title>
          </cc:Agent>
        </dc:creator>
        <dc:subject>
          <rdf:Bag>
            <rdf:li>bicycle</rdf:li>
            <rdf:li>bike</rdf:li>
            <rdf:li>circle</rdf:li>
            <rdf:li>clip art</rdf:li>
            <rdf:li>clipart</rdf:li>
            <rdf:li>image</rdf:li>
            <rdf:li>media</rdf:li>
            <rdf:li>png</rdf:li>
            <rdf:li>public domain</rdf:li>
            <rdf:li>svg</rdf:li>
            <rdf:li>transportation</rdf:li>
            <rdf:li>wheel</rdf:li>
          </rdf:Bag>
        </dc:subject>
      </cc:Work>
      <cc:License rdf:about="http://creativecommons.org/licenses/publicdomain/">
        <cc:permits rdf:resource="http://creativecommons.org/ns#Reproduction" />
        <cc:permits rdf:resource="http://creativecommons.org/ns#Distribution" />
        <cc:permits rdf:resource="http://creativecommons.org/ns#DerivativeWorks" />
      </cc:License>
    </rdf:RDF>
  </metadata>
</svg>