<svg xmlns="http://www.w3.org/2000/svg" id="svg2" viewBox="0 0 128 128" xmlns:sodipodi="http://inkscape.sourceforge.net/DTD/sodipodi-0.dtd" sodipodi:version="0.32" xmlns:xlink="http://www.w3.org/1999/xlink" sodipodi:docbase="/home/nicu/Desktop/hats" sodipodi:docname="mountain4.svg" xmlns:svg="http://www.w3.org/2000/svg" xmlns:dc="http://purl.org/dc/elements/1.1/" xmlns:cc="http://web.resource.org/cc/" xmlns:rdf="http://www.w3.org/1999/02/22-rdf-syntax-ns#">
  <sodipodi:namedview id="base" pagecolor="#ffffff" borderopacity="1.0" bordercolor="#666666" />
  <g id="layer1">
    <g id="g2046" transform="matrix(2.4697 0 0 2.4697 -209.48 -87.661)">
      <path id="path2174" fill="#e4e4e4" fill-rule="evenodd" d="m 106.41 46.983 c -0.06 0.687 -1 1.677 -1.43 2.539 c -0.33 0.668 -0.33 1.45 -0.61 2.132 c -0.35 0.887 -0.76 1.882 -1.42 2.538 c -0.61 0.616 -0.94 1.489 -1.11 2.335 c -0.17 0.825 -1 1.277 -1.73 0.914 c -0.555 -0.277 -2.004 0.171 -2.538 0.305 c -0.239 0.059 -0.474 0.135 -0.711 0.203 c -0.271 0.077 -0.956 1.81 -1.117 2.132 c -0.484 0.968 -1.065 1.927 -1.523 2.843 c -0.273 0.546 0.047 1.235 -0.101 1.827 c -0.298 1.193 -1.059 2.219 -1.625 3.351 c -0.461 0.923 -1.381 1.341 -1.827 2.234 c -0.425 0.849 -0.777 1.104 -1.32 1.827 c -1.45 1.933 0.959 0.858 2.132 2.031 c 0.811 0.811 2.393 1.419 3.147 1.117 c 0.731 -0.292 2.219 -0.406 3.046 -0.406 c 2.068 0 4.587 0.093 6.397 -0.914 c 1.06 -0.591 1.83 -0.916 2.64 -1.726 c 0.58 -0.583 1.91 -1.2 2.33 -1.625 c 0.26 -0.257 1.35 -1.985 1.86 -1.732 c 0.46 0.229 1.98 0.29 2.47 0.412 c 0.34 0.086 0.18 1.557 0.45 1.828 c 0.44 0.44 0.29 0.856 0.81 1.117 c 0.84 0.422 2.34 0.413 3.05 1.117 c 0.98 0.984 0.75 -0.102 1.92 -0.102 c 1.63 0 4.16 -0.036 5.59 -0.609 c 1.25 -0.501 2.34 -0.586 3.65 -0.914 c 0.86 -0.213 2.1 -0.54 1.83 -1.624 c -0.17 -0.685 -2.63 -2.656 -3.14 -3.158 c -0.85 -0.854 -1.69 -0.792 -2.14 -1.919 c -0.05 -0.141 -0.13 -0.271 -0.2 -0.406 c -0.43 -0.862 -0.52 -1.88 -0.71 -2.843 c -0.42 -2.11 -1.77 -3.799 -3.15 -5.178 c -0.26 -0.263 -2.24 2.766 -2.34 2.944 c -0.59 1.068 -1.03 0.151 -1.42 -0.812 c -0.38 -0.95 -0.89 -1.872 -1.85 -2.35 c -2.11 -1.058 -1.2 -0.299 -2.11 -2.117 c -0.63 -1.265 -0.81 -2.267 -2.13 -3.148 c -1.05 -0.702 -1.57 -1.776 -2.44 -2.64 c -1.04 -1.048 -1.13 -1.334 -2.63 -1.523 Z" sodipodi:nodetypes="ccccccccccccccccccccccccccccccccccccccccc" />
      <path id="path2176" fill="#c8c8c8" fill-rule="evenodd" d="m 98.384 58.253 c -0.356 -0.043 -1.342 0.398 -2.031 0.914 c -0.711 0.534 -1.246 1.74 -1.827 2.437 c -0.467 0.561 -0.37 2.155 -0.508 2.843 c -0.161 0.804 -0.344 1.297 -0.711 2.03 c -0.5 1.001 -0.939 1.625 -1.624 2.539 c -0.684 0.912 -1.453 1.633 -2.132 2.538 c -0.402 0.536 -1.094 1.043 -1.094 1.305 c 0 0.279 3.275 1.739 3.531 1.944 c 0.77 0.617 3.202 0.683 3.756 0.406 c 0.523 -0.261 0.964 -2.669 1.402 -3.399 c 0.281 -0.468 0.789 -1.959 0.933 -2.49 c 0.182 -0.664 -0.203 -1.21 -0.203 -1.827 c 0 -1.029 -0.554 -1.846 -0.304 -2.843 c 0.349 -1.396 0.569 -2.885 0.914 -4.264 c 0.148 -0.595 0.102 -1.624 -0.102 -2.133 Z" sodipodi:nodetypes="cccccccccccccccc" />
      <path id="path2178" fill="#c8c8c8" fill-rule="evenodd" d="m 107.72 46.983 c 0 -2.399 0.61 2.678 0.61 3.656 c 0 0.517 -0.28 1.239 -0.4 1.726 c -0.18 0.694 -0.75 1.374 -1.02 2.03 c -0.3 0.753 -0.4 1.32 -0.4 2.234 c 0 0.924 0.2 1.64 0.2 2.538 c 0 0.871 0.41 3.111 0.41 3.858 c 0 0.806 -0.32 1.469 -0.92 1.32 c -0.61 -0.154 -1.32 -0.382 -1.83 -0.507 c -0.66 -0.166 -1.19 -0.615 -1.72 -1.016 c -0.42 -0.31 -0.62 -1.382 -0.71 -1.827 c -0.02 -0.067 0 -0.136 0 -0.203 c 0 -1.12 -0.62 -1.898 -0.21 -3.148 c 0.33 -0.968 0.78 -1.86 1.22 -2.741 c 0.69 -1.365 1.46 -2.564 1.83 -4.061 c 0.03 -0.136 0.07 -0.271 0.1 -0.407 c 0.35 -1.379 0.8 -2.707 1.93 -3.553 c 0.25 -0.184 0.61 0.051 0.91 0.101 Z" sodipodi:nodetypes="ccccccccccccccccccc" />
      <path id="path2180" fill="#c8c8c8" fill-rule="evenodd" d="m 119.91 60.69 c 0.13 0.136 0.27 0.271 0.4 0.406 c 0.35 0.342 0.21 1.464 0.21 1.929 v 2.031 c 0 0.739 0.08 1.298 -0.1 2.031 c -0.21 0.823 -0.91 1.508 -1.12 2.335 c -0.22 0.864 -0.2 1.31 -0.61 2.132 c -0.24 0.478 -0.2 1.076 -0.2 1.625 c 0 0.902 -0.4 0.662 -1.32 0.203 c -0.8 -0.399 -2.18 -0.464 -2.77 -1.049 c -0.62 -0.624 -0.7 -0.436 -0.7 -1.475 c 0 -0.79 1.08 -1.974 1.23 -2.756 c 0.19 -0.941 0.77 -2.203 1.32 -2.944 c 0.96 -1.277 1.39 -2.717 2.64 -3.656 c 0.57 -0.425 0.47 -0.131 1.02 -0.812 Z" sodipodi:nodetypes="ccccccccccccccc" />
      <path id="path1719" fill="#5c2700" d="m 107.19 45.592 c -0.83 0 -2.2 1.516 -2.63 2.875 c -0.31 1.013 -0.61 1.698 -1.75 4.219 c -0.23 0.526 -0.67 1.281 -0.97 1.656 c -0.3 0.376 -0.63 1.081 -0.71 1.594 c -0.09 0.513 -0.22 1.045 -0.29 1.156 c -0.06 0.111 -0.84 -0.043 -1.714 -0.343 l -1.594 -0.563 l -0.656 0.656 c -0.92 0.884 -2.289 2.643 -2.781 3.625 c -0.548 1.093 -1.12 3.639 -1.063 4.657 c 0.039 0.685 -0.288 1.16 -2.031 2.875 c -2.029 1.996 -2.844 3.213 -2.844 4.343 c 0 1.028 0.417 0.692 2.75 -2.187 c 0.67 -0.826 1.294 -1.544 1.406 -1.594 c 0.113 -0.05 0.219 -0.208 0.219 -0.375 s 0.324 -0.651 0.719 -1.062 c 0.584 -0.61 0.744 -1.125 0.906 -2.75 c 0.257 -2.569 0.946 -4.039 2.188 -4.657 c 0.525 -0.261 1.106 -0.668 1.281 -0.906 c 0.412 -0.56 0.226 1.302 -0.344 3.375 c -0.516 1.879 -0.525 2.831 -0.094 5 c 0.313 1.57 0.302 1.966 -0.093 3.125 c -0.539 1.581 -0.595 2.402 -0.125 2.25 c 0.446 -0.145 1.237 -2.529 1.25 -3.75 c 0.005 -0.526 -0.124 -1.63 -0.313 -2.437 c -0.308 -1.318 -0.28 -1.816 0.344 -4.969 c 0.563 -2.843 0.783 -3.531 1.156 -3.531 c 0.565 -0.002 0.923 0.524 0.813 1.187 c -0.09 0.555 0.45 1.33 0.78 1.125 c 0.24 -0.148 0.81 1.335 0.81 2.094 c 0 0.642 1.23 1.465 2.75 1.875 c 1.42 0.381 2.38 1.015 4 2.562 c 0.81 0.767 1.27 1.01 1.47 0.813 c 0.2 -0.198 -0.13 -0.663 -1.06 -1.563 c -1.75 -1.698 -2.62 -2.255 -4.31 -2.75 c -1.61 -0.468 -1.88 -0.739 -2.16 -2.062 c -0.11 -0.526 -0.32 -1.1 -0.47 -1.281 c -0.51 -0.634 -0.04 -2.989 0.81 -4.094 c 0.45 -0.572 0.96 -1.605 1.16 -2.281 s 0.55 -1.454 0.75 -1.75 c 0.2 -0.297 0.34 -0.79 0.34 -1.094 c 0.01 -1.061 0.56 -2.535 1.22 -3.25 c 0.83 -0.892 0.92 -0.891 0.75 -0.031 c -0.09 0.495 0 0.687 0.32 0.687 c 0.7 0 0.47 3.954 -0.29 5.031 c -0.63 0.898 -1.06 2.046 -0.93 2.469 c 0.04 0.15 0.15 1.265 0.25 2.5 c 0.14 1.754 0.28 2.205 0.56 2.031 c 0.39 -0.243 0.47 -2.466 0.16 -4.218 c -0.14 -0.746 -0.08 -1.165 0.21 -1.5 c 0.77 -0.858 1.3 -2.562 1.32 -4.25 c 0.01 -0.921 0.08 -1.501 0.15 -1.313 c 0.08 0.188 0.27 0.313 0.41 0.313 c 0.69 0 2.83 2.68 3.97 4.937 c 0.4 0.795 1.15 1.609 2.12 2.313 c 0.83 0.599 1.72 1.473 1.97 1.937 c 0.44 0.816 0.42 0.872 -0.28 2.063 c -0.4 0.676 -0.72 1.441 -0.72 1.687 c 0 0.507 -1.96 4.579 -2.78 5.75 c -0.41 0.593 -0.51 1.045 -0.41 2 c 0.26 2.288 1.33 2.047 1.66 -0.375 c 0.21 -1.503 1.55 -4.346 2.44 -5.187 c 0.34 -0.325 1 -0.942 1.47 -1.375 l 0.84 -0.782 l 0.34 1.25 c 0.64 2.423 0.63 2.676 0.07 3.469 c -0.84 1.173 -1.41 2.688 -1.16 3.094 c 0.3 0.482 1.09 -0.126 1.09 -0.844 c 0 -0.275 0.32 -0.947 0.69 -1.5 c 0.8 -1.176 0.81 -1.558 0.25 -3.719 c -0.34 -1.316 -0.36 -1.803 -0.09 -2.687 c 0.18 -0.598 0.43 -1.094 0.56 -1.094 s 0.22 -0.231 0.22 -0.531 c 0 -0.631 0.04 -0.635 0.97 -0.281 c 0.56 0.214 0.69 0.429 0.69 1.187 c 0 0.517 0.06 1.137 0.15 1.375 c 0.3 0.77 0.66 0.465 0.66 -0.562 c 0 -1.53 0.21 -1 0.4 1.062 c 0.24 2.541 0.33 2.747 2.19 4.156 c 2.61 1.973 2.88 2.281 3.53 4.313 c 0.18 0.543 0.98 0.677 0.97 0.156 c -0.01 -0.577 -1.07 -2.777 -1.56 -3.219 c -0.26 -0.229 -1.19 -0.962 -2.06 -1.625 c -1.89 -1.438 -2.01 -1.613 -2.25 -3.718 c -0.18 -1.532 -0.45 -2.16 -2.03 -4.5 c -0.26 -0.379 -0.57 -0.921 -0.66 -1.219 s -0.42 -0.73 -0.75 -0.938 c -0.55 -0.34 -0.65 -0.307 -1.03 0.25 c -0.68 0.991 -1.86 2.188 -2.16 2.188 c -0.15 0 -0.51 -0.362 -0.78 -0.813 s -0.71 -0.886 -0.97 -0.968 c -0.64 -0.204 -2.94 -2.436 -2.94 -2.844 c 0 -0.655 -2.7 -4.305 -3.93 -5.313 c -0.7 -0.57 -1.46 -1.405 -1.69 -1.843 c -0.27 -0.528 -0.62 -0.782 -1.03 -0.782 Z" />
    </g>
  </g>
  <metadata>
    <rdf:RDF>
      <cc:Work>
        <dc:format>image/svg+xml</dc:format>
        <dc:type rdf:resource="http://purl.org/dc/dcmitype/StillImage" />
        <cc:license rdf:resource="http://creativecommons.org/licenses/publicdomain/" />
        <dc:publisher>
          <cc:Agent rdf:about="http://openclipart.org/">
            <dc:title>Openclipart</dc:title>
          </cc:Agent>
        </dc:publisher>
        <dc:title>RPG map symbols: mountains</dc:title>
        <dc:date>2007-12-07T09:04:55</dc:date>
        <dc:description>Part of the fantasy RPG map elements collection: mountains</dc:description>
        <dc:source>http://openclipart.org/detail/9454/rpg-map-symbols:-mountains-by-nicubunu-9454</dc:source>
        <dc:creator>
          <cc:Agent>
            <dc:title>nicubunu</dc:title>
          </cc:Agent>
        </dc:creator>
        <dc:subject>
          <rdf:Bag>
            <rdf:li>cartography</rdf:li>
            <rdf:li>clip art</rdf:li>
            <rdf:li>clipart</rdf:li>
            <rdf:li>fantasy</rdf:li>
            <rdf:li>geography</rdf:li>
            <rdf:li>image</rdf:li>
            <rdf:li>land</rdf:li>
            <rdf:li>map</rdf:li>
            <rdf:li>media</rdf:li>
            <rdf:li>mountain</rdf:li>
            <rdf:li>png</rdf:li>
            <rdf:li>public domain</rdf:li>
            <rdf:li>rock</rdf:li>
            <rdf:li>rocks</rdf:li>
            <rdf:li>svg</rdf:li>
          </rdf:Bag>
        </dc:subject>
      </cc:Work>
      <cc:License rdf:about="http://creativecommons.org/licenses/publicdomain/">
        <cc:permits rdf:resource="http://creativecommons.org/ns#Reproduction" />
        <cc:permits rdf:resource="http://creativecommons.org/ns#Distribution" />
        <cc:permits rdf:resource="http://creativecommons.org/ns#DerivativeWorks" />
      </cc:License>
    </rdf:RDF>
  </metadata>
</svg>